<mxfile host="app.diagrams.net" agent="Mozilla/5.0 (Windows NT 10.0; Win64; x64) AppleWebKit/537.36 (KHTML, like Gecko) Chrome/135.0.0.0 Safari/537.36" version="26.2.15">
  <diagram name="Page-1" id="ANLD8ZM56q-P0OQhXSfz">
    <mxGraphModel dx="786" dy="451" grid="1" gridSize="10" guides="1" tooltips="1" connect="1" arrows="1" fold="1" page="1" pageScale="1" pageWidth="850" pageHeight="1100" math="0" shadow="0">
      <root>
        <mxCell id="0" />
        <mxCell id="1" parent="0" />
        <mxCell id="my6tqli9zn8OR5O7QVZm-6" style="edgeStyle=orthogonalEdgeStyle;rounded=0;orthogonalLoop=1;jettySize=auto;html=1;exitX=1;exitY=0.5;exitDx=0;exitDy=0;" edge="1" parent="1" source="my6tqli9zn8OR5O7QVZm-1" target="my6tqli9zn8OR5O7QVZm-5">
          <mxGeometry relative="1" as="geometry" />
        </mxCell>
        <mxCell id="my6tqli9zn8OR5O7QVZm-1" value="Client&#39;s Edge Device" style="whiteSpace=wrap;html=1;aspect=fixed;" vertex="1" parent="1">
          <mxGeometry x="120" y="230" width="80" height="80" as="geometry" />
        </mxCell>
        <mxCell id="my6tqli9zn8OR5O7QVZm-2" value="" style="swimlane;startSize=0;" vertex="1" parent="1">
          <mxGeometry x="330" y="150" width="330" height="200" as="geometry" />
        </mxCell>
        <mxCell id="my6tqli9zn8OR5O7QVZm-4" value="&lt;font style=&quot;font-size: 18px;&quot;&gt;On-Prem Cluster&lt;/font&gt;" style="text;html=1;align=center;verticalAlign=middle;whiteSpace=wrap;rounded=0;" vertex="1" parent="my6tqli9zn8OR5O7QVZm-2">
          <mxGeometry x="50" y="10" width="170" height="30" as="geometry" />
        </mxCell>
        <mxCell id="my6tqli9zn8OR5O7QVZm-8" style="edgeStyle=orthogonalEdgeStyle;rounded=0;orthogonalLoop=1;jettySize=auto;html=1;exitX=1;exitY=0.5;exitDx=0;exitDy=0;entryX=0;entryY=0.5;entryDx=0;entryDy=0;" edge="1" parent="my6tqli9zn8OR5O7QVZm-2" source="my6tqli9zn8OR5O7QVZm-5" target="my6tqli9zn8OR5O7QVZm-7">
          <mxGeometry relative="1" as="geometry" />
        </mxCell>
        <mxCell id="my6tqli9zn8OR5O7QVZm-5" value="&lt;font style=&quot;font-size: 14px;&quot;&gt;Load Balancer&lt;/font&gt;" style="rhombus;whiteSpace=wrap;html=1;" vertex="1" parent="my6tqli9zn8OR5O7QVZm-2">
          <mxGeometry x="10" y="80" width="100" height="80" as="geometry" />
        </mxCell>
        <mxCell id="my6tqli9zn8OR5O7QVZm-7" value="&lt;font style=&quot;font-size: 14px;&quot;&gt;Kafka&lt;/font&gt;" style="rounded=1;whiteSpace=wrap;html=1;" vertex="1" parent="my6tqli9zn8OR5O7QVZm-2">
          <mxGeometry x="180" y="90" width="120" height="60" as="geometry" />
        </mxCell>
        <mxCell id="my6tqli9zn8OR5O7QVZm-9" value="&lt;font style=&quot;font-size: 14px;&quot;&gt;ingress route&lt;/font&gt;" style="text;html=1;align=center;verticalAlign=middle;whiteSpace=wrap;rounded=0;" vertex="1" parent="my6tqli9zn8OR5O7QVZm-2">
          <mxGeometry x="110" y="80" width="60" height="30" as="geometry" />
        </mxCell>
        <mxCell id="my6tqli9zn8OR5O7QVZm-3" value="&lt;h1 style=&quot;margin-top: 0px;&quot;&gt;Client data ingestion&lt;/h1&gt;" style="text;html=1;whiteSpace=wrap;overflow=hidden;rounded=0;" vertex="1" parent="1">
          <mxGeometry x="220" y="60" width="340" height="40" as="geometry" />
        </mxCell>
        <mxCell id="my6tqli9zn8OR5O7QVZm-10" value="&lt;font style=&quot;font-size: 14px;&quot;&gt;Send Client data&lt;/font&gt;" style="text;html=1;align=center;verticalAlign=middle;whiteSpace=wrap;rounded=0;" vertex="1" parent="1">
          <mxGeometry x="210" y="230" width="90" height="30" as="geometry" />
        </mxCell>
        <mxCell id="my6tqli9zn8OR5O7QVZm-12" value="&lt;h1 style=&quot;margin-top: 0px;&quot;&gt;Sample data ingested by Kafka&lt;/h1&gt;" style="text;html=1;whiteSpace=wrap;overflow=hidden;rounded=0;" vertex="1" parent="1">
          <mxGeometry x="220" y="380" width="390" height="50" as="geometry" />
        </mxCell>
        <mxCell id="my6tqli9zn8OR5O7QVZm-13" value="&lt;font style=&quot;font-size: 18px;&quot;&gt;{&lt;/font&gt;&lt;div&gt;&lt;font style=&quot;font-size: 18px;&quot;&gt;&amp;nbsp; &amp;nbsp; &amp;nbsp; &amp;nbsp; &amp;nbsp; &amp;nbsp; &amp;nbsp; &amp;nbsp; &amp;nbsp; &amp;nbsp; &amp;nbsp; &amp;nbsp; &amp;nbsp; &quot;ip&quot;: &quot;10.1.0.0&quot;&lt;/font&gt;&lt;/div&gt;&lt;div&gt;&lt;font style=&quot;font-size: 18px;&quot;&gt;}&lt;/font&gt;&lt;/div&gt;" style="text;html=1;align=center;verticalAlign=middle;whiteSpace=wrap;rounded=0;" vertex="1" parent="1">
          <mxGeometry x="140" y="450" width="410" height="30" as="geometry" />
        </mxCell>
      </root>
    </mxGraphModel>
  </diagram>
</mxfile>
